<svg width="1440" height="1026" viewBox="0 0 1440 1026" fill="none" xmlns="http://www.w3.org/2000/svg">
<rect width="1440" height="1026" fill="white"/>
<g clip-path="url(#clip0_160_9)">
<path d="M181.009 108.065C177.876 115.233 177.024 120.758 173.238 126.078C185.508 128.992 201.444 121.07 210.798 106.692C220.365 91.9848 219.721 75.6364 209.894 68.2296C203.571 72.8244 190.397 86.5912 181.009 108.065Z" stroke="#432918" stroke-width="0.75" stroke-miterlimit="10"/>
<path d="M168.079 124.07C170.609 119.637 171.858 112.522 174.652 104.973C180.993 87.8393 195.355 68.3272 204.869 65.8962C204.987 65.8661 205.165 65.8107 205.389 65.7363C192.856 60.8837 175.241 68.8816 165.204 84.3096C155.031 99.9469 156.399 117.443 168.079 124.07Z" stroke="#432918" stroke-width="0.75" stroke-miterlimit="10"/>
</g>
<g clip-path="url(#clip1_160_9)">
<path d="M675.956 359.278C673.919 363.716 673.366 367.136 670.905 370.429C678.88 372.234 689.239 367.329 695.318 358.428C701.537 349.324 701.119 339.204 694.731 334.618C690.621 337.463 682.058 345.985 675.956 359.278Z" stroke="#432918" stroke-width="0.75" stroke-miterlimit="10"/>
<path d="M667.552 369.186C669.196 366.442 670.008 362.037 671.824 357.364C675.945 346.758 685.281 334.679 691.465 333.174C691.541 333.155 691.657 333.121 691.803 333.075C683.656 330.071 672.206 335.022 665.682 344.573C659.07 354.253 659.96 365.084 667.552 369.186Z" stroke="#432918" stroke-width="0.75" stroke-miterlimit="10"/>
</g>
<g clip-path="url(#clip2_160_9)">
<path d="M432.956 693.278C430.919 697.716 430.366 701.136 427.905 704.429C435.88 706.234 446.239 701.329 452.318 692.428C458.537 683.324 458.119 673.204 451.731 668.618C447.621 671.463 439.058 679.985 432.956 693.278Z" stroke="#432918" stroke-width="0.75" stroke-miterlimit="10"/>
<path d="M424.552 703.186C426.196 700.442 427.008 696.037 428.824 691.364C432.945 680.758 442.281 668.679 448.465 667.174C448.541 667.155 448.657 667.121 448.803 667.075C440.656 664.071 429.206 669.022 422.682 678.573C416.07 688.253 416.96 699.084 424.552 703.186Z" stroke="#432918" stroke-width="0.75" stroke-miterlimit="10"/>
</g>
<g clip-path="url(#clip3_160_9)">
<path d="M1004.96 52.2784C1002.92 56.7156 1002.37 60.1363 999.905 63.4292C1007.88 65.2335 1018.24 60.329 1024.32 51.4283C1030.54 42.324 1030.12 32.2036 1023.73 27.6184C1019.62 30.4628 1011.06 38.9851 1004.96 52.2784Z" stroke="#432918" stroke-width="0.75" stroke-miterlimit="10"/>
<path d="M996.552 62.186C998.196 59.4419 999.008 55.0375 1000.82 50.364C1004.95 39.7577 1014.28 27.6788 1020.46 26.1739C1020.54 26.1552 1020.66 26.1209 1020.8 26.0749C1012.66 23.0709 1001.21 28.022 994.682 37.5726C988.07 47.2529 988.96 58.0839 996.552 62.186Z" stroke="#432918" stroke-width="0.75" stroke-miterlimit="10"/>
</g>
<g clip-path="url(#clip4_160_9)">
<path d="M1256.01 738.065C1252.88 745.233 1252.02 750.758 1248.24 756.078C1260.51 758.992 1276.44 751.07 1285.8 736.692C1295.37 721.985 1294.72 705.636 1284.89 698.23C1278.57 702.824 1265.4 716.591 1256.01 738.065Z" stroke="#432918" stroke-width="0.75" stroke-miterlimit="10"/>
<path d="M1243.08 754.07C1245.61 749.637 1246.86 742.522 1249.65 734.973C1255.99 717.839 1270.36 698.327 1279.87 695.896C1279.99 695.866 1280.16 695.811 1280.39 695.736C1267.86 690.884 1250.24 698.882 1240.2 714.31C1230.03 729.947 1231.4 747.443 1243.08 754.07Z" stroke="#432918" stroke-width="0.75" stroke-miterlimit="10"/>
</g>
<g clip-path="url(#clip5_160_9)">
<path d="M1025.22 182.286C1019.21 188.859 1016.06 194.508 1010.22 198.843C1020.56 206.554 1038.97 203.929 1053.92 191.885C1069.21 179.566 1075.56 161.676 1069.43 150.023C1061.51 152.632 1043.22 162.594 1025.22 182.286Z" stroke="#432918" stroke-width="0.75" stroke-miterlimit="10"/>
<path d="M1006.2 194.756C1010.48 190.911 1014.68 183.694 1020.53 176.582C1033.81 160.443 1055.67 144.72 1065.68 145.634C1065.81 145.646 1066 145.652 1066.24 145.655C1056.48 135.754 1036.45 137.835 1020.41 150.759C1004.15 163.857 997.998 183.256 1006.2 194.756Z" stroke="#432918" stroke-width="0.75" stroke-miterlimit="10"/>
<path d="M972.108 179.714C973.603 188.493 976.121 194.453 975.954 201.722C988.393 198.301 997.635 182.16 997.318 162.968C996.993 143.336 986.779 127.334 973.823 125.006C971.012 132.86 967.632 153.414 972.108 179.714Z" stroke="#432918" stroke-width="0.75" stroke-miterlimit="10"/>
<path d="M970.262 202.378C969.855 196.643 966.746 188.89 964.73 179.905C960.154 159.515 961.181 132.607 968.056 125.268C968.141 125.177 968.263 125.03 968.415 124.84C954.603 126.46 943.938 143.543 944.278 164.137C944.624 185.011 956.148 201.785 970.262 202.378Z" stroke="#432918" stroke-width="0.75" stroke-miterlimit="10"/>
</g>
<g clip-path="url(#clip6_160_9)">
<path d="M154.431 742.433C149.901 747.177 147.558 751.286 143.122 754.383C151.236 760.235 165.411 758.606 176.753 749.98C188.355 741.157 192.961 728.082 188.04 719.396C181.964 721.186 168.003 728.223 154.431 742.433Z" stroke="#432918" stroke-width="0.75" stroke-miterlimit="10"/>
<path d="M139.954 751.305C143.191 748.544 146.32 743.296 150.719 738.154C160.703 726.483 177.323 715.261 185.071 716.1C185.167 716.111 185.315 716.119 185.503 716.125C177.799 708.669 162.366 709.871 150.195 719.127C137.858 728.508 133.428 742.698 139.954 751.305Z" stroke="#432918" stroke-width="0.75" stroke-miterlimit="10"/>
<path d="M113.378 739.66C114.677 746.152 116.72 750.585 116.711 755.937C126.26 753.622 133.13 741.884 132.567 727.739C131.991 713.27 123.84 701.313 113.797 699.383C111.756 705.123 109.486 720.21 113.378 739.66Z" stroke="#432918" stroke-width="0.75" stroke-miterlimit="10"/>
<path d="M112.327 756.326C111.918 752.095 109.389 746.331 107.683 739.679C103.812 724.581 104.16 704.774 109.348 699.481C109.412 699.415 109.504 699.309 109.618 699.172C98.9798 700.137 91.0265 712.545 91.6303 727.724C92.2423 743.108 101.418 755.656 112.327 756.326Z" stroke="#432918" stroke-width="0.75" stroke-miterlimit="10"/>
</g>
<g clip-path="url(#clip7_160_9)">
<path d="M417.431 152.433C412.901 157.177 410.558 161.286 406.122 164.383C414.236 170.235 428.411 168.606 439.753 159.98C451.355 151.157 455.961 138.082 451.04 129.396C444.964 131.186 431.003 138.223 417.431 152.433Z" stroke="#432918" stroke-width="0.75" stroke-miterlimit="10"/>
<path d="M402.954 161.305C406.191 158.544 409.32 153.296 413.719 148.154C423.703 136.483 440.323 125.261 448.071 126.1C448.167 126.111 448.315 126.119 448.503 126.125C440.799 118.669 425.366 119.871 413.195 129.127C400.858 138.508 396.428 152.698 402.954 161.305Z" stroke="#432918" stroke-width="0.75" stroke-miterlimit="10"/>
<path d="M376.378 149.66C377.677 156.152 379.72 160.585 379.711 165.937C389.26 163.622 396.13 151.884 395.567 137.739C394.991 123.27 386.84 111.313 376.797 109.383C374.756 115.123 372.486 130.21 376.378 149.66Z" stroke="#432918" stroke-width="0.75" stroke-miterlimit="10"/>
<path d="M375.327 166.326C374.918 162.095 372.389 156.331 370.683 149.679C366.812 134.581 367.16 114.774 372.348 109.481C372.412 109.415 372.504 109.309 372.618 109.172C361.98 110.137 354.027 122.545 354.63 137.724C355.242 153.108 364.418 165.656 375.327 166.326Z" stroke="#432918" stroke-width="0.75" stroke-miterlimit="10"/>
</g>
<path d="M832.691 758.502C829.33 761.825 827.626 764.736 824.304 766.876C830.612 771.252 841.394 770.364 849.874 764.384C858.549 758.267 861.799 748.948 857.87 742.597C853.27 743.763 842.76 748.547 832.691 758.502Z" stroke="#432918" stroke-width="0.75" stroke-miterlimit="10"/>
<path d="M821.825 764.597C824.239 762.674 826.52 758.96 829.773 755.347C837.155 747.148 849.61 739.405 855.538 740.165C855.612 740.175 855.725 740.183 855.868 740.191C849.84 734.669 838.089 735.224 828.989 741.641C819.766 748.145 816.672 758.27 821.825 764.597Z" stroke="#432918" stroke-width="0.75" stroke-miterlimit="10"/>
<path d="M801.313 755.679C802.435 760.378 804.083 763.61 804.184 767.462C811.423 765.989 816.428 757.678 815.714 747.485C814.983 737.059 808.523 728.288 800.821 726.696C799.38 730.787 797.952 741.601 801.313 755.679Z" stroke="#432918" stroke-width="0.75" stroke-miterlimit="10"/>
<path d="M800.847 767.654C800.45 764.6 798.404 760.401 796.969 755.578C793.711 744.633 793.578 730.383 797.429 726.677C797.477 726.631 797.545 726.557 797.629 726.46C789.532 726.94 783.714 735.712 784.48 746.649C785.257 757.735 792.511 766.953 800.847 767.654Z" stroke="#432918" stroke-width="0.75" stroke-miterlimit="10"/>
<path d="M307.448 460.013C302.831 461.025 299.835 462.574 295.883 462.607C298.876 469.677 308.463 474.69 318.827 474.168C329.428 473.634 337.156 467.496 337.229 460.028C332.718 458.555 321.279 456.981 307.448 460.013Z" stroke="#432918" stroke-width="0.75" stroke-miterlimit="10"/>
<path d="M295.006 459.356C298.074 459.021 301.987 457.101 306.668 455.786C317.29 452.802 331.954 452.915 336.559 456.726C336.616 456.773 336.707 456.841 336.823 456.925C334.68 449.035 324.452 443.223 313.332 443.783C302.06 444.351 294.033 451.254 295.006 459.356Z" stroke="#432918" stroke-width="0.75" stroke-miterlimit="10"/>
<path d="M282.437 440.855C280.874 445.426 280.539 449.039 278.565 452.349C285.471 454.972 294.143 450.623 298.988 441.627C303.943 432.424 303.171 421.558 297.513 416.097C294.108 418.784 287.121 427.16 282.437 440.855Z" stroke="#432918" stroke-width="0.75" stroke-miterlimit="10"/>
<path d="M275.642 450.727C276.939 447.934 277.454 443.291 278.819 438.448C281.916 427.456 289.42 415.341 294.656 414.268C294.721 414.254 294.818 414.228 294.941 414.191C287.84 410.269 278.235 414.573 273.037 424.226C267.768 434.011 268.972 445.678 275.642 450.727Z" stroke="#432918" stroke-width="0.75" stroke-miterlimit="10"/>
<g clip-path="url(#clip8_160_9)">
<path d="M583.431 860.433C578.901 865.177 576.558 869.286 572.122 872.383C580.236 878.235 594.411 876.606 605.753 867.98C617.355 859.157 621.961 846.082 617.04 837.396C610.964 839.186 597.003 846.223 583.431 860.433Z" stroke="#432918" stroke-width="0.75" stroke-miterlimit="10"/>
<path d="M568.954 869.305C572.191 866.544 575.32 861.296 579.719 856.154C589.703 844.483 606.323 833.261 614.071 834.1C614.167 834.111 614.315 834.119 614.503 834.125C606.799 826.669 591.366 827.871 579.195 837.127C566.858 846.508 562.428 860.698 568.954 869.305Z" stroke="#432918" stroke-width="0.75" stroke-miterlimit="10"/>
<path d="M542.378 857.66C543.677 864.152 545.72 868.585 545.711 873.937C555.26 871.622 562.13 859.884 561.567 845.739C560.991 831.27 552.84 819.313 542.797 817.383C540.756 823.123 538.486 838.21 542.378 857.66Z" stroke="#432918" stroke-width="0.75" stroke-miterlimit="10"/>
<path d="M541.327 874.326C540.918 870.095 538.389 864.331 536.683 857.679C532.812 842.581 533.16 822.774 538.348 817.481C538.412 817.415 538.504 817.309 538.618 817.172C527.98 818.137 520.027 830.545 520.63 845.724C521.242 861.108 530.418 873.656 541.327 874.326Z" stroke="#432918" stroke-width="0.75" stroke-miterlimit="10"/>
</g>
<g clip-path="url(#clip9_160_9)">
<path d="M1155.43 910.433C1150.9 915.177 1148.56 919.286 1144.12 922.383C1152.24 928.235 1166.41 926.606 1177.75 917.98C1189.36 909.157 1193.96 896.082 1189.04 887.396C1182.96 889.186 1169 896.223 1155.43 910.433Z" stroke="#432918" stroke-width="0.75" stroke-miterlimit="10"/>
<path d="M1140.95 919.305C1144.19 916.543 1147.32 911.296 1151.72 906.154C1161.7 894.483 1178.32 883.261 1186.07 884.1C1186.17 884.111 1186.31 884.118 1186.5 884.125C1178.8 876.669 1163.37 877.871 1151.19 887.126C1138.86 896.508 1134.43 910.698 1140.95 919.305Z" stroke="#432918" stroke-width="0.75" stroke-miterlimit="10"/>
<path d="M1114.38 907.66C1115.68 914.152 1117.72 918.585 1117.71 923.937C1127.26 921.622 1134.13 909.884 1133.57 895.739C1132.99 881.27 1124.84 869.313 1114.8 867.383C1112.76 873.123 1110.49 888.21 1114.38 907.66Z" stroke="#432918" stroke-width="0.75" stroke-miterlimit="10"/>
<path d="M1113.33 924.326C1112.92 920.095 1110.39 914.331 1108.68 907.679C1104.81 892.581 1105.16 872.774 1110.35 867.481C1110.41 867.415 1110.5 867.309 1110.62 867.172C1099.98 868.137 1092.03 880.545 1092.63 895.724C1093.24 911.108 1102.42 923.656 1113.33 924.326Z" stroke="#432918" stroke-width="0.75" stroke-miterlimit="10"/>
</g>
<defs>
<clipPath id="clip0_160_9">
<rect width="60" height="63" fill="white" transform="translate(158 64)"/>
</clipPath>
<clipPath id="clip1_160_9">
<rect width="39" height="39" fill="white" transform="translate(661 332)"/>
</clipPath>
<clipPath id="clip2_160_9">
<rect width="39" height="39" fill="white" transform="translate(418 666)"/>
</clipPath>
<clipPath id="clip3_160_9">
<rect width="39" height="39" fill="white" transform="translate(990 25)"/>
</clipPath>
<clipPath id="clip4_160_9">
<rect width="60" height="63" fill="white" transform="translate(1233 694)"/>
</clipPath>
<clipPath id="clip5_160_9">
<rect width="124.016" height="91.3823" fill="white" transform="translate(963.507 103) rotate(21.5101)"/>
</clipPath>
<clipPath id="clip6_160_9">
<rect width="96.571" height="66.7282" fill="white" transform="translate(105.467 683) rotate(21.5101)"/>
</clipPath>
<clipPath id="clip7_160_9">
<rect width="96.571" height="66.7282" fill="white" transform="translate(368.467 93) rotate(21.5101)"/>
</clipPath>
<clipPath id="clip8_160_9">
<rect width="96.571" height="66.7282" fill="white" transform="translate(534.467 801) rotate(21.5101)"/>
</clipPath>
<clipPath id="clip9_160_9">
<rect width="96.571" height="66.7282" fill="white" transform="translate(1106.47 851) rotate(21.5101)"/>
</clipPath>
</defs>
</svg>
