<svg width="36" height="29" viewBox="0 0 36 29" fill="none" xmlns="http://www.w3.org/2000/svg">
<path fill-rule="evenodd" clip-rule="evenodd" d="M10.5791 0.087C12.4985 0.0158182 13.1105 0 18 0C22.8895 0 23.5015 0.0171363 25.4193 0.087C27.3371 0.156864 28.6462 0.403364 29.7916 0.760591C30.9911 1.12573 32.0793 1.6965 32.9793 2.43468C33.8956 3.15836 34.6025 4.03364 35.0542 5.00118C35.4993 5.92391 35.8036 6.97846 35.892 8.52073C35.9804 10.0696 36 10.5626 36 14.5C36 18.4387 35.9787 18.9317 35.892 20.478C35.8053 22.0202 35.4993 23.0748 35.0542 23.9975C34.6025 24.9652 33.8945 25.8419 32.9793 26.5666C32.0793 27.3048 30.9911 27.8743 29.7916 28.2381C28.6462 28.5966 27.3371 28.8418 25.4225 28.913C23.5015 28.9842 22.8895 29 18 29C13.1105 29 12.4985 28.9829 10.5791 28.913C8.66455 28.8431 7.35545 28.5966 6.21 28.2381C5.00878 27.8742 3.92043 27.3038 3.02073 26.5666C2.10499 25.8425 1.39633 24.9662 0.944182 23.9988C0.500727 23.0761 0.196364 22.0215 0.108 20.4793C0.0196363 18.9304 0 18.4374 0 14.5C0 10.5613 0.0212727 10.0683 0.108 8.52336C0.194727 6.97846 0.500727 5.92391 0.944182 5.00118C1.397 4.03374 2.10619 3.15746 3.02236 2.43336C3.92079 1.69584 5.00805 1.12499 6.20836 0.760591C7.35382 0.403364 8.66291 0.158182 10.5775 0.087H10.5791ZM25.2736 2.697C23.3755 2.62714 22.806 2.61264 18 2.61264C13.194 2.61264 12.6245 2.62714 10.7264 2.697C8.97054 2.76159 8.01818 2.99755 7.38327 3.19659C6.54382 3.46023 5.94327 3.77264 5.31327 4.28014C4.71607 4.74816 4.25648 5.31792 3.96818 5.94764C3.72109 6.45909 3.42818 7.22627 3.348 8.64068C3.26127 10.1698 3.24327 10.6285 3.24327 14.5C3.24327 18.3715 3.26127 18.8302 3.348 20.3593C3.42818 21.7737 3.72109 22.5409 3.96818 23.0524C4.25618 23.6811 4.716 24.2519 5.31327 24.7199C5.89418 25.201 6.60273 25.5714 7.38327 25.8034C8.01818 26.0025 8.97054 26.2384 10.7264 26.303C12.6245 26.3729 13.1924 26.3874 18 26.3874C22.8076 26.3874 23.3755 26.3729 25.2736 26.303C27.0295 26.2384 27.9818 26.0025 28.6167 25.8034C29.4562 25.5398 30.0567 25.2274 30.6867 24.7199C31.284 24.2519 31.7438 23.6811 32.0318 23.0524C32.2789 22.5409 32.5718 21.7737 32.652 20.3593C32.7387 18.8302 32.7567 18.3715 32.7567 14.5C32.7567 10.6285 32.7387 10.1698 32.652 8.64068C32.5718 7.22627 32.2789 6.45909 32.0318 5.94764C31.7045 5.27141 31.3167 4.78764 30.6867 4.28014C30.1057 3.79909 29.3984 3.42887 28.6167 3.19659C27.9818 2.99755 27.0295 2.76159 25.2736 2.697ZM15.7009 18.97C16.9849 19.4005 18.4146 19.4586 19.7459 19.1344C21.0771 18.8101 22.2274 18.1236 23.0001 17.192C23.7728 16.2605 24.1201 15.1418 23.9826 14.0269C23.8452 12.912 23.2315 11.8702 22.2464 11.0793C21.6184 10.5738 20.8591 10.1867 20.0231 9.94588C19.1871 9.70509 18.2952 9.61661 17.4117 9.68681C16.5282 9.75701 15.675 9.98414 14.9135 10.3519C14.152 10.7196 13.5012 11.2187 13.0079 11.8133C12.5147 12.408 12.1912 13.0833 12.0608 13.7908C11.9305 14.4982 11.9964 15.2201 12.254 15.9045C12.5115 16.589 12.9542 17.2189 13.5503 17.749C14.1463 18.279 14.8808 18.696 15.7009 18.97ZM11.4578 9.22991C12.3169 8.53783 13.3369 7.98884 14.4594 7.6143C15.5819 7.23974 16.785 7.04697 18 7.04697C19.215 7.04697 20.4181 7.23974 21.5406 7.61429C22.6631 7.98884 23.6831 8.53783 24.5422 9.22991C25.4013 9.92199 26.0828 10.7436 26.5478 11.6478C27.0127 12.5521 27.252 13.5213 27.252 14.5C27.252 15.4787 27.0127 16.4479 26.5478 17.3522C26.0828 18.2564 25.4013 19.078 24.5422 19.7701C22.8071 21.1678 20.4538 21.953 18 21.953C15.5462 21.953 13.1929 21.1678 11.4578 19.7701C9.72272 18.3724 8.74796 16.4767 8.74796 14.5C8.74796 12.5233 9.72272 10.6276 11.4578 9.22991ZM29.304 8.15691C29.5169 7.99513 29.6873 7.80058 29.8052 7.58478C29.9231 7.36899 29.9861 7.13633 29.9903 6.90059C29.9946 6.66485 29.9401 6.43081 29.8301 6.21234C29.72 5.99387 29.5567 5.7954 29.3498 5.62869C29.1428 5.46198 28.8964 5.33041 28.6252 5.24177C28.354 5.15314 28.0635 5.10924 27.7708 5.11268C27.4782 5.11611 27.1894 5.16682 26.9215 5.26178C26.6536 5.35675 26.4121 5.49404 26.2113 5.66555C25.8207 5.99908 25.6069 6.44211 25.6151 6.90059C25.6234 7.35907 25.8532 7.79689 26.2557 8.12111C26.6582 8.44534 27.2017 8.63044 27.7708 8.63712C28.34 8.64381 28.89 8.47155 29.304 8.15691Z" fill="white"/>
</svg>
