<svg width="38" height="30" viewBox="0 0 38 30" fill="none" xmlns="http://www.w3.org/2000/svg">
<path d="M26.4776 17.5752C26.0731 17.4111 24.058 16.6318 23.6832 16.5264C23.3084 16.415 23.0338 16.3623 22.7629 16.6904C22.4883 17.0156 21.709 17.7393 21.4641 17.959C21.2266 18.1758 20.9854 18.2021 20.5809 18.041C18.1762 17.0918 16.599 16.3477 15.0145 14.2002C14.5951 13.6289 15.4338 13.6699 16.2168 12.4365C16.3504 12.2197 16.2836 12.0352 16.1797 11.8711C16.0758 11.707 15.2594 10.1191 14.918 9.47168C14.5877 8.8418 14.2463 8.92969 13.9977 8.91797C13.7602 8.90625 13.4893 8.90625 13.2147 8.90625C12.9401 8.90625 12.4984 8.98828 12.1236 9.30762C11.7488 9.63281 10.6912 10.415 10.6912 12.0029C10.6912 13.5908 12.157 15.1289 12.3574 15.3457C12.5652 15.5625 15.2408 18.8203 19.3488 20.2236C21.9465 21.1084 22.9633 21.1846 24.2621 21.0322C25.0526 20.9385 26.6817 20.2529 27.0193 19.4941C27.357 18.7383 27.357 18.0908 27.2568 17.9561C27.1567 17.8125 26.882 17.7305 26.4776 17.5752Z" fill="white"/>
<path d="M34.3336 9.91406C33.4949 8.34082 32.2926 6.92871 30.76 5.71582C29.2274 4.50586 27.4387 3.55371 25.4422 2.89453C23.4012 2.21777 21.234 1.875 19 1.875H18.9258C16.677 1.88379 14.4987 2.23535 12.4502 2.92676C10.4723 3.59473 8.69846 4.54395 7.18069 5.75391C5.66292 6.96387 4.47171 8.37012 3.64788 9.9375C2.79436 11.5605 2.36389 13.2861 2.37503 15.0615C2.38616 17.0947 3.00218 19.1133 4.15628 20.918V25.3711C4.15628 26.1152 4.92073 26.7188 5.86331 26.7188H11.5076C13.7936 27.6299 16.3504 28.1162 18.9258 28.125H19.0037C21.2266 28.125 23.3826 27.7852 25.4125 27.1201C27.3979 26.4668 29.1828 25.5293 30.7117 24.3311C32.2444 23.1328 33.4504 21.7324 34.2928 20.1709C35.1686 18.5537 35.6139 16.834 35.625 15.0586C35.6362 13.2744 35.1983 11.543 34.3336 9.91406ZM28.7264 22.7461C26.125 24.7793 22.6739 25.8984 19 25.8984H18.9369C16.6992 25.8896 14.4764 25.4502 12.5133 24.624L12.2016 24.4922H6.97659V20.3672L6.8096 20.1211C5.76311 18.5713 5.20647 16.8164 5.19534 15.0498C5.1805 12.1289 6.59436 9.38672 9.18831 7.32129C11.7785 5.25586 15.2408 4.11328 18.9407 4.10156H19.0037C20.8592 4.10156 22.659 4.38574 24.3549 4.94824C26.01 5.49609 27.4944 6.28418 28.7709 7.29199C30.0438 8.29688 31.0457 9.47168 31.7397 10.7783C32.4596 12.1318 32.8196 13.5674 32.8121 15.0498C32.7899 17.9678 31.3389 20.7012 28.7264 22.7461Z" fill="white"/>
</svg>
